HIERARCHY
ROOT Hips
{
	OFFSET 0.000000 88.474243 0.000000
	CHANNELS 6 Xposition Yposition Zposition Zrotation Yrotation Xrotation 
	JOINT Hips_Spine
	{
		OFFSET 0.000000 0.000000 0.000000
		CHANNELS 3 Zrotation Yrotation Xrotation
		JOINT Spine
		{
			OFFSET 0.005100 8.711998 -0.691000
			CHANNELS 3 Zrotation Yrotation Xrotation
			JOINT Spine1
			{
				OFFSET -0.009200 8.660301 -1.275000
				CHANNELS 3 Zrotation Yrotation Xrotation
				JOINT Spine2
				{
					OFFSET 0.006300 9.852501 -1.857000
					CHANNELS 3 Zrotation Yrotation Xrotation
					JOINT Spine2_Neck
					{
						OFFSET 0.000000 0.000000 0.000000
						CHANNELS 3 Zrotation Yrotation Xrotation
						JOINT Neck
						{
							OFFSET 0.016300 11.420799 -0.263300
							CHANNELS 3 Zrotation Yrotation Xrotation
							End Site #name: Head
							{
								OFFSET -0.019200 9.262405 2.362500
							}
						}
					}
					JOINT Spine2_LeftShoulder
					{
						OFFSET 0.000000 0.000000 0.000000
						CHANNELS 3 Zrotation Yrotation Xrotation
						JOINT LeftShoulder
						{
							OFFSET 5.616900 6.732201 -0.345700
							CHANNELS 3 Zrotation Yrotation Xrotation
							JOINT LeftArm
							{
								OFFSET 10.664888 -0.183372 -2.440700
								CHANNELS 3 Zrotation Yrotation Xrotation
								JOINT LeftForeArm
								{
									OFFSET 27.459126 0.000000 0.000000
									CHANNELS 3 Zrotation Yrotation Xrotation
									End Site #name: LeftHand
									{
										OFFSET 21.306858 0.000000 0.000000
									}
								}
							}
						}
					}
					JOINT Spine2_RightShoulder
					{
						OFFSET 0.000000 0.000000 0.000000
						CHANNELS 3 Zrotation Yrotation Xrotation
						JOINT RightShoulder
						{
							OFFSET -5.580300 6.737503 -0.344400
							CHANNELS 3 Zrotation Yrotation Xrotation
							JOINT RightArm
							{
								OFFSET -10.679335 -0.188484 -2.383900
								CHANNELS 3 Zrotation Yrotation Xrotation
								JOINT RightForeArm
								{
									OFFSET -27.503529 0.000000 0.000000
									CHANNELS 3 Zrotation Yrotation Xrotation
									End Site #name: RightHand
									{
										OFFSET -21.306808 0.000000 0.000000
									}
								}
							}
						}
					}
				}
			}
		}
	}
	JOINT Hips_LeftUpLeg
	{
		OFFSET 0.000000 0.000000 0.000000
		CHANNELS 3 Zrotation Yrotation Xrotation
		JOINT LeftUpLeg
		{
			OFFSET 6.857700 -6.739601 0.312100
			CHANNELS 3 Zrotation Yrotation Xrotation
			JOINT LeftLeg
			{
				OFFSET -0.367590 -34.731552 -4.572400
				CHANNELS 3 Zrotation Yrotation Xrotation
				End Site #name: LeftFoot
				{
					OFFSET 0.367590 -34.656704 -6.067400
				}
			}
		}
	}
	JOINT Hips_RightUpLeg
	{
		OFFSET 0.000000 0.000000 0.000000
		CHANNELS 3 Zrotation Yrotation Xrotation
		JOINT RightUpLeg
		{
			OFFSET -6.876100 -6.733299 0.301000
			CHANNELS 3 Zrotation Yrotation Xrotation
			JOINT RightLeg
			{
				OFFSET 0.347353 -34.795158 -4.515900
				CHANNELS 3 Zrotation Yrotation Xrotation
				End Site #name: RightFoot
				{
					OFFSET -0.347353 -34.589367 -6.070300
				}
			}
		}
	}
}
MOTION
Frames: 15
Frame Time: 0.041667
0.003615 0.151319 -1.279739 -4.612852 0.973857 -3.498330 0.000000 -0.000000 0.000000 3.288150 0.038875 22.021390 0.300383 0.271826 4.359839 0.000000 0.000000 0.000000 0.533082 0.168378 3.207587 1.164959 -0.566245 9.610075 0.610216 0.382340 3.542743 -6.370681 3.283235 -1.430901 -68.847337 -4.629898 10.696525 0.106931 -34.924124 0.800468 0.329147 0.466719 4.026997 5.230735 -6.550554 0.152213 72.166269 13.268352 11.017725 177.359239 88.446437 177.517841 0.000000 0.000000 -0.000000 8.485771 9.389266 -59.662550 6.639620 -3.759560 55.470548 0.000000 0.000000 -0.000000 -4.378473 -7.484538 -52.916994 0.805577 -0.844256 60.567415 
0.004717 0.155193 -1.314874 -4.600819 0.967593 -3.497669 0.000000 -0.000000 0.000000 3.287070 0.036566 22.028420 0.301551 0.270578 4.371547 0.000000 0.000000 0.000000 0.535571 0.166128 3.220016 1.165039 -0.568467 9.610164 0.612816 0.380068 3.555468 -6.362606 3.282905 -1.432462 -68.841683 -4.629646 10.651355 0.106003 -34.918950 0.800320 0.331648 0.465426 4.041775 5.228243 -6.559462 0.149185 72.194724 13.275139 11.019565 176.619625 88.792729 176.779522 0.000000 0.000000 -0.000000 8.487053 9.387149 -59.664157 6.643020 -3.759969 55.470554 0.000000 0.000000 0.000000 -4.376535 -7.488147 -52.913536 0.804495 -0.845789 60.572477 
0.006412 0.158819 -1.349663 -4.591701 0.962074 -3.496321 0.000000 -0.000000 0.000000 3.285229 0.038606 22.028115 0.303832 0.269675 4.383909 0.000000 0.000000 0.000000 0.539440 0.164224 3.234042 1.164660 -0.570057 9.604440 0.617034 0.377510 3.568692 -6.356120 3.270220 -1.430789 -68.832762 -4.637687 10.567353 0.106229 -34.862528 0.799326 0.336216 0.464258 4.058182 5.242295 -6.561284 0.146338 72.265123 13.337360 11.061555 171.772324 89.498647 171.935525 0.000000 0.000000 -0.000000 8.487494 9.385163 -59.667390 6.645123 -3.761861 55.473182 0.000000 0.000000 0.000000 -4.374346 -7.490920 -52.907372 0.802356 -0.848310 60.573662 
0.008757 0.162215 -1.384099 -4.582916 0.956884 -3.494394 0.000000 -0.000000 0.000000 3.285472 0.043152 22.027108 0.307075 0.269538 4.395362 0.000000 0.000000 0.000000 0.544644 0.162442 3.248093 1.164754 -0.570339 9.591042 0.623060 0.375428 3.583722 -6.348483 3.241798 -1.429576 -68.804030 -4.645511 10.470993 0.106350 -34.770091 0.798951 0.342555 0.463127 4.075043 5.266460 -6.559070 0.143764 72.396420 13.439487 11.141589 7.342410 89.430338 7.509348 0.000000 0.000000 -0.000000 8.486553 9.384507 -59.670312 6.647532 -3.762937 55.474098 0.000000 0.000000 0.000000 -4.372181 -7.492766 -52.900306 0.803655 -0.849504 60.572630 
0.011772 0.165479 -1.418286 -4.576620 0.952586 -3.491366 0.000000 -0.000000 0.000000 3.285866 0.050063 22.019156 0.311801 0.269354 4.406266 0.000000 0.000000 0.000000 0.552171 0.160682 3.263694 1.164569 -0.568486 9.573383 0.630846 0.373048 3.598083 -6.348532 3.201690 -1.421896 -68.776905 -4.651990 10.351317 0.106151 -34.660262 0.798077 0.351637 0.462397 4.092496 5.302314 -6.544537 0.141517 72.582208 13.573190 11.257711 2.090571 88.037939 2.261978 0.000000 0.000000 -0.000000 8.486516 9.383848 -59.669407 6.653121 -3.761657 55.470565 0.000000 0.000000 0.000000 -4.368766 -7.493576 -52.890874 0.802400 -0.852466 60.563085 
0.015434 0.168526 -1.452208 -4.570373 0.948777 -3.488269 0.000000 -0.000000 0.000000 3.287096 0.060560 22.005799 0.317963 0.269274 4.417670 0.000000 0.000000 0.000000 0.561324 0.158906 3.281094 1.165793 -0.566688 9.549931 0.642422 0.370856 3.616214 -6.352661 3.152101 -1.413085 -68.730672 -4.644666 10.185161 0.106294 -34.520662 0.797913 0.363118 0.461045 4.110912 5.352825 -6.525752 0.139838 72.811372 13.748979 11.427314 1.087389 86.298568 1.264440 -0.000000 0.000000 -0.000000 8.486846 9.384316 -59.673758 6.656887 -3.762088 55.471878 0.000000 0.000000 0.000000 -4.366133 -7.494351 -52.882304 0.801126 -0.854043 60.557344 
0.019792 0.171466 -1.485887 -4.563787 0.945003 -3.482053 0.000000 -0.000000 0.000000 3.290116 0.072547 21.994407 0.325423 0.268901 4.428011 0.000000 0.000000 0.000000 0.573011 0.157047 3.300109 1.166622 -0.562636 9.522655 0.656485 0.368974 3.635677 -6.348425 3.089418 -1.402187 -68.675319 -4.643263 10.023386 0.105905 -34.345596 0.797817 0.376876 0.459695 4.130783 5.419692 -6.505677 0.137045 73.091870 13.969115 11.635609 0.675249 84.206862 0.859093 -0.000000 0.000000 -0.000000 8.487141 9.383729 -59.672930 6.660923 -3.762400 55.467281 0.000000 0.000000 0.000000 -4.363561 -7.496946 -52.875698 0.801375 -0.855796 60.551708 
0.024805 0.174313 -1.519376 -4.559497 0.943241 -3.477173 0.000000 -0.000000 0.000000 3.292813 0.087505 21.978966 0.333620 0.268748 4.440437 0.000000 0.000000 0.000000 0.586350 0.155118 3.321784 1.167674 -0.558491 9.495446 0.671505 0.366718 3.658395 -6.343795 3.017566 -1.388872 -68.629056 -4.630681 9.845739 0.107050 -34.214224 0.797568 0.392689 0.458458 4.153016 5.490933 -6.474946 0.137634 73.422337 14.214234 11.909610 0.459089 81.754914 0.650320 -0.000000 0.000000 -0.000000 8.487941 9.383400 -59.664336 6.666201 -3.761710 55.451666 0.000000 0.000000 0.000000 -4.364417 -7.497973 -52.863916 0.800380 -0.857379 60.544520 
0.030457 0.177084 -1.552679 -4.555459 0.942618 -3.469594 0.000000 -0.000000 0.000000 3.299135 0.102219 21.967708 0.343530 0.268176 4.454006 0.000000 0.000000 0.000000 0.601077 0.153430 3.345083 1.168198 -0.554447 9.467618 0.688770 0.365242 3.684562 -6.353265 2.938741 -1.374831 -68.568124 -4.634378 9.646634 0.105612 -34.117476 0.798220 0.411980 0.456026 4.174739 5.577072 -6.451823 0.136726 73.855349 14.413590 12.450170 0.330791 78.952262 0.531284 -0.000000 0.000000 -0.000000 8.486596 9.383458 -59.668004 6.669487 -3.761955 55.446496 0.000000 0.000000 0.000000 -4.362634 -7.496161 -52.851898 0.800787 -0.859557 60.532924 
0.036749 0.179840 -1.585848 -4.551864 0.941274 -3.459850 0.000000 -0.000000 0.000000 3.307671 0.121008 21.949913 0.353947 0.268048 4.468708 0.000000 0.000000 0.000000 0.617964 0.152135 3.370383 1.169725 -0.546799 9.436298 0.707311 0.363692 3.712670 -6.357549 2.858127 -1.359233 -68.520077 -4.628722 9.447443 0.106161 -34.004821 0.799125 0.433354 0.454079 4.197946 5.717060 -6.426173 0.137642 74.334958 14.632772 13.086210 0.245830 75.825957 0.454909 -0.000000 0.000000 -0.000000 8.486457 9.383101 -59.675693 6.672310 -3.759649 55.449838 0.000000 0.000000 0.000000 -4.362730 -7.496299 -52.845137 0.798989 -0.862026 60.518507 
0.043720 0.182632 -1.618877 -4.550147 0.941592 -3.452835 0.000000 -0.000000 0.000000 3.318805 0.142199 21.930845 0.365487 0.268944 4.484382 0.000000 0.000000 0.000000 0.636426 0.151795 3.397369 1.173763 -0.538240 9.403049 0.727552 0.363177 3.739792 -6.361874 2.776541 -1.342824 -68.473937 -4.635531 9.275925 0.106049 -33.882911 0.799076 0.456689 0.453090 4.223310 5.906581 -6.407555 0.139056 74.766919 14.950142 14.088704 0.165737 72.786121 0.352297 -0.000000 0.000000 0.000000 8.487182 9.380232 -59.682438 6.677024 -3.757534 55.449064 0.000000 0.000000 0.000000 -4.360556 -7.496060 -52.836433 0.799481 -0.863045 60.503647 
0.051449 0.185488 -1.651828 -4.549845 0.941896 -3.442297 0.000000 -0.000000 0.000000 3.331968 0.165693 21.913185 0.376763 0.270574 4.499171 0.000000 0.000000 0.000000 0.656618 0.151868 3.424454 1.177968 -0.528893 9.366805 0.749966 0.362997 3.769891 -6.368388 2.692477 -1.326361 -68.425217 -4.645630 9.103756 0.106935 -33.758504 0.800111 0.481804 0.452495 4.247316 6.123318 -6.394068 0.137949 75.239285 15.291832 15.266981 0.112139 68.877515 0.279086 -0.000000 0.000000 0.000000 8.486337 9.380546 -59.688591 6.683713 -3.753586 55.442929 0.000000 0.000000 0.000000 -4.361697 -7.493477 -52.821946 0.799932 -0.866637 60.482919 
0.059910 0.188473 -1.684755 -4.548097 0.942212 -3.432856 0.000000 -0.000000 0.000000 3.345157 0.190672 21.887909 0.387774 0.272889 4.513228 0.000000 0.000000 0.000000 0.678189 0.152970 3.451624 1.181965 -0.517253 9.332486 0.773462 0.364140 3.798853 -6.372758 2.608953 -1.310444 -68.397177 -4.663437 8.996843 0.108532 -33.625897 0.799906 0.508639 0.451567 4.271609 6.338355 -6.386577 0.132808 75.683534 15.648337 16.516438 0.075511 64.555563 0.223422 -0.000000 0.000000 0.000000 8.485744 9.383307 -59.692974 6.691896 -3.746238 55.438759 0.000000 0.000000 0.000000 -4.364031 -7.493412 -52.811215 0.798786 -0.869176 60.467532 
0.069271 0.191633 -1.717610 -4.547010 0.941355 -3.418604 0.000000 -0.000000 0.000000 3.357865 0.218429 21.850165 0.408453 0.270193 4.529176 0.000000 0.000000 0.000000 0.700137 0.155081 3.477896 1.186111 -0.503347 9.298547 0.797815 0.365964 3.827647 -6.375509 2.542976 -1.297283 -68.367020 -4.695238 8.896711 0.108757 -33.494883 0.801075 0.535347 0.452741 4.295315 6.532506 -6.385941 0.124672 76.015092 16.027690 17.733036 0.045760 60.045077 0.177576 -0.000000 0.000000 -0.000000 8.485549 9.384318 -59.695186 6.702517 -3.738119 55.432171 0.000000 -0.000000 0.000000 -4.363091 -7.491193 -52.803980 0.796208 -0.871436 60.451972 
0.079728 0.194957 -1.750475 -4.546288 0.941252 -3.406411 0.000000 -0.000000 0.000000 3.368221 0.249201 21.806238 0.428530 0.268211 4.541579 0.000000 0.000000 0.000000 0.721385 0.158335 3.501438 1.191732 -0.489676 9.264972 0.821327 0.369185 3.853682 -6.375031 2.476351 -1.284597 -68.343570 -4.732575 8.789814 0.110889 -33.342199 0.800665 0.560018 0.455282 4.323557 6.723950 -6.363624 0.125545 76.223353 16.350854 18.986981 0.022905 55.676975 0.131142 -0.000000 0.000000 -0.000000 8.479912 9.388230 -59.705643 6.712655 -3.725566 55.434374 0.000000 -0.000000 0.000000 -4.362692 -7.489598 -52.792801 0.795727 -0.873227 60.427112 
